<svg xmlns="http://www.w3.org/2000/svg" width="91" height="59" viewBox="0 0 91 59" fill="none">
  <path d="M71.2695 21.0819C67.6571 18.8505 67.7919 13.7113 67.8203 13.1204C67.9409 8.12896 69.9211 6.60508 70.5314 6.26298C71.8941 5.42329 73.4696 5.90533 73.8174 6.02973C73.8742 6.05306 73.9309 6.07638 73.9948 6.09971C73.1432 2.82648 70.2049 0.602854 67.0325 1.01492L7.53725 8.7354C4.00997 9.19412 1.4692 12.7239 1.88793 16.588L5.51457 50.1756C5.9333 54.0397 9.1554 56.8231 12.6827 56.3644L72.1637 48.6517C75.691 48.193 78.2318 44.6632 77.8131 40.7991L75.7265 21.4629C75.3362 21.5795 74.9671 21.6651 74.6194 21.7039C72.7812 21.945 71.5463 21.2608 71.2624 21.0819H71.2695Z" fill="#4B384C"/>
  <path d="M12.6827 56.3648C9.15542 56.8235 5.93332 54.0323 5.51459 50.176L1.88796 16.5884C1.80989 15.8653 1.83828 15.15 1.95183 14.4736C0.51821 16.4251 -0.226989 18.9753 0.0639931 21.6576L3.17963 50.4792C3.74741 55.7661 8.14053 59.5603 12.9666 58.9305L68.6365 51.7154C71.2411 51.3811 73.4483 49.8183 74.8394 47.6258C74.0516 48.17 73.1503 48.5355 72.178 48.6599L12.6969 56.3726L12.6827 56.3648Z" fill="#F59D0F"/>
  <path d="M7.79992 19.3251C7.39539 15.7409 9.41807 12.7087 12.4982 12.281C13.506 12.1411 14.4499 12.2577 15.2803 12.6231C15.5926 12.7709 16.863 13.424 16.5365 14.4658C16.4797 14.6835 16.3449 14.9323 16.1532 15.1033C16.0468 15.1733 15.8978 15.3055 15.841 15.2588C15.3797 14.8234 15.2377 14.7612 15.1526 14.7224C14.3648 14.1937 13.5344 13.9915 12.6828 14.1081C10.6814 14.388 9.30452 16.5728 9.57421 19.0452V19.0841C9.85809 21.6498 11.6253 23.3603 13.6764 23.0804C14.7551 22.9249 15.4577 22.4895 16.2668 21.4943L16.5507 21.0123C16.6359 20.8879 17.4449 21.3699 17.523 22.0074C17.5869 22.5983 17.0759 23.2048 16.8701 23.3991C16.0326 24.2466 15.0532 24.7287 13.8112 24.8997C10.7807 25.3195 8.19027 22.9327 7.79283 19.3718V19.3329L7.79992 19.3251Z" fill="white"/>
  <path d="M51.5466 16.5023L49.751 16.7511C50.0846 17.9096 51.0143 18.5627 52.3628 18.3761C53.5551 18.2128 54.1654 17.8085 54.5842 17.3109C54.5842 17.3109 55.0313 16.86 55.159 17.1865C55.2868 17.513 54.7971 19.62 52.3273 19.8999C49.9426 20.2187 48.1329 18.6948 47.8774 16.4012C47.5935 13.8277 49.0697 11.8296 51.3763 11.5031C53.0867 11.2698 54.7687 12.2805 54.9461 13.921C55.0313 14.6208 54.9177 15.1884 54.3713 15.6237C53.8461 16.0436 52.9447 16.3079 51.5466 16.5101M51.6105 12.8792C50.4252 13.0269 49.6942 14.1543 49.7581 15.1495V15.3283L51.4259 15.0795C52.4124 14.9318 52.9731 14.7996 53.2286 14.6597C53.477 14.5197 53.5125 14.4109 53.4912 14.1232C53.3848 13.3146 52.7744 12.7237 51.6105 12.8792Z" fill="white"/>
  <path d="M60.0348 14.0144C58.3102 13.7967 58.1469 13.6412 58.0689 12.9959C58.0121 12.1095 58.9205 11.8296 59.6799 11.7519C60.1554 11.7052 60.6664 11.7907 60.8935 11.8529C61.3264 11.9696 61.6671 12.1562 61.9581 12.4361C61.9865 12.4594 62.2136 12.6382 62.3697 12.6227C62.462 12.6071 62.5259 12.5527 62.5542 12.4516C62.5968 12.2961 62.4904 11.9618 62.3058 11.6508C62.0574 11.2154 61.4329 10.4768 60.1696 10.3524C60.1554 10.3524 59.8147 10.3213 59.616 10.3446C57.6075 10.539 56.2946 11.783 56.4294 13.3457C56.5075 14.512 57.3662 15.1184 59.2186 15.3128C61 15.5305 61.2697 15.7404 61.3477 16.4557C61.3761 17.0777 61.2058 17.4975 60.2761 17.6919C60.1341 17.723 59.4741 17.8474 58.7147 17.7308C58.1753 17.6452 57.7708 17.4742 57.4372 17.1476C57.4159 17.1243 57.203 16.9533 57.0327 16.9688C56.9404 16.9844 56.8694 17.0388 56.841 17.1476C56.7559 17.4509 57.1959 18.6016 58.445 19.0447C59.0837 19.2235 59.7438 19.1924 60.0773 19.1536C60.3612 19.1302 60.5387 19.0836 60.6167 19.0603C61.3406 18.8659 61.9084 18.5549 62.2916 18.1428C62.8026 17.6219 63.0368 16.9377 62.9801 16.168C62.8452 14.5275 60.8722 14.1232 60.0419 14.0377L60.0348 14.0144Z" fill="white"/>
  <path d="M42.1927 13.3928C42.072 12.7397 41.5965 12.4909 41.1352 12.5453C40.4468 12.6309 39.6448 13.4628 39.2403 14.9478L39.1693 14.2636C39.1622 14.1858 39.1551 14.1081 39.1409 14.0303C39.1267 13.7349 39.0345 13.5328 38.9209 13.3695C38.8712 13.284 38.8145 13.214 38.7435 13.1518C38.6512 13.0585 38.5519 12.9885 38.3957 12.9574C38.268 12.9419 38.1615 12.9419 38.0551 12.9574C37.6221 12.9496 37.1111 13.3384 37.1182 13.5017C37.1182 13.5017 37.537 13.4939 37.615 14.4968H37.6292L38.2609 20.569C38.2893 20.8645 38.3744 21.0589 38.5164 21.1599C38.637 21.2688 38.8215 21.2921 39.0416 21.2688L39.2119 21.2455C39.4106 21.2144 39.5809 21.1444 39.6803 21.0122C39.8081 20.8723 39.8506 20.6779 39.8222 20.3747L39.7371 19.5194C39.6803 19.0063 39.5951 18.3376 39.5242 17.6068C39.3964 15.7952 39.9855 14.629 41.3481 14.1625C41.5185 14.0925 41.9301 13.9992 42.0366 13.9681C42.1217 13.9604 42.2069 13.6027 42.1856 13.3928H42.1927Z" fill="white"/>
  <path d="M46.0889 19.1304L45.1237 10.2748C45.0669 9.26406 44.1869 9.21741 44.1869 9.21741C43.7326 9.13189 43.1365 9.55173 43.1365 9.73055C43.1365 9.73055 43.4487 9.73055 43.5694 10.3681L44.563 19.5347C44.5985 20.631 45.5566 20.6698 45.5566 20.6698C45.9966 20.7476 46.5928 20.3122 46.5857 20.1334C46.5857 20.1334 46.1599 20.1411 46.0889 19.1304Z" fill="white"/>
  <path d="M26.7138 21.5715L26.6996 21.4471C26.6996 21.4471 26.6996 21.4083 26.6996 21.3772L26.3235 18.034C26.1035 16.0358 25.0247 14.6985 22.9949 14.9784C21.7955 15.1417 21.0645 15.8648 20.6458 16.79L20.1561 12.9803C20.1419 12.8637 20.1206 12.7626 20.0993 12.6615C20.0638 12.3894 19.9716 12.195 19.858 12.0473C19.6735 11.7752 19.4251 11.6819 19.1767 11.6741C19.1483 11.6741 19.127 11.6741 19.127 11.6741C18.6728 11.5964 18.0908 12.0395 18.0908 12.2183C18.0908 12.2183 18.4528 12.2183 18.5663 13.0425V13.1202C18.5663 13.1202 18.5805 13.1902 18.5876 13.2291L19.7374 23.0332C19.8012 23.6397 20.0993 23.7874 20.5251 23.7252L20.6955 23.7019C21.0929 23.6474 21.3626 23.422 21.2987 22.8155L20.8942 19.1147C20.731 17.6452 21.4478 16.6578 22.7607 16.479C23.8537 16.3313 24.5989 17.031 24.755 18.4383L25.1312 21.8203C25.1809 22.8777 26.1177 22.9088 26.1177 22.9088C26.1461 22.9088 26.1745 22.9088 26.2028 22.9088H26.217C26.6571 22.9088 27.1681 22.5279 27.161 22.3801C27.161 22.3801 26.7919 22.3879 26.6784 21.5638L26.7138 21.5715Z" fill="white"/>
  <path d="M36.0394 20.8016C36.0394 20.8016 36.0394 20.7627 36.0394 20.7394L35.351 14.5273C35.3297 14.3174 35.2871 14.1463 35.2374 13.9986C35.1026 13.3921 34.7548 13.2366 34.4141 13.2444C34.3432 13.2444 34.2722 13.2444 34.2012 13.2522C34.038 13.2755 33.9031 13.3299 33.7967 13.3844C33.7044 13.4232 33.6334 13.4543 33.6334 13.4699L33.7044 14.1308C33.1225 13.9286 32.4766 13.8664 31.7456 13.9675C29.4461 14.2863 27.8351 16.3544 28.0906 18.6635V18.6946C28.3532 20.9571 30.3475 22.5043 32.6327 22.1933C33.4489 22.0767 34.0877 21.8435 34.6341 21.4158C34.6412 21.4236 34.6483 21.4314 34.6554 21.4392C34.9464 21.8512 35.429 21.8746 35.429 21.8746C35.8832 21.9523 36.4652 21.5169 36.4581 21.3381C36.4581 21.3381 36.1813 21.3381 36.0394 20.7938V20.8016ZM34.0238 20.234C33.5767 20.5917 33.087 20.7938 32.5902 20.8638C31.0927 21.0737 29.8436 20.0552 29.6661 18.4536V18.4225C29.4887 16.8753 30.461 15.4991 31.8876 15.3125C32.4269 15.2348 32.8599 15.3281 33.2218 15.4603C33.4915 15.5536 33.7257 15.678 33.896 15.7868L34.3503 19.9153C34.258 20.0086 34.1586 20.1174 34.0238 20.234Z" fill="white"/>
  <path d="M13.5344 34.9754L14.5138 31.9743L13.4847 32.1298L12.7821 34.3612L11.5401 33.3271C11.902 33.0783 12.7182 32.4175 12.5834 31.3523C12.4627 30.4115 11.6962 29.6885 10.8162 29.6885C10.7381 29.6885 10.6529 29.6885 10.5678 29.704C9.59547 29.8517 8.89995 30.8003 9.0206 31.7955C9.11286 32.5185 9.53869 32.9306 9.91484 33.2572C8.97802 33.9724 8.55929 34.8199 8.67994 35.8151C8.81478 36.8414 9.65225 37.9532 10.9368 37.961C11.0575 37.961 11.171 37.9532 11.2846 37.9376C12.5266 37.751 12.995 36.6004 13.2079 35.9784L14.968 37.4245L15.5358 36.6237L13.5202 34.9832L13.5344 34.9754ZM9.92903 31.6477C9.87935 31.2435 10.1419 30.777 10.6813 30.6759C10.731 30.6759 10.7736 30.6681 10.8162 30.6681C11.2491 30.6681 11.6111 31.0024 11.6465 31.4223C11.7459 32.1142 11.1214 32.5108 10.7736 32.7207C10.3549 32.4097 9.98581 32.0909 9.92194 31.6477H9.92903ZM10.6671 33.8869L12.4414 35.3486C12.2569 35.9473 11.9375 36.8414 11.1143 36.9658C11.0575 36.9658 11.0007 36.9813 10.9439 36.9813C10.3691 36.9813 9.70902 36.5304 9.60257 35.7218C9.55998 35.403 9.57418 34.9132 10.1136 34.3379C10.2413 34.1979 10.5039 33.9958 10.66 33.8947L10.6671 33.8869Z" fill="#F59D0F"/>
  <path fill-rule="evenodd" clip-rule="evenodd" d="M34.3644 47.5319C33.6192 46.5911 31.8165 41.4597 29.4674 33.9336C27.4234 27.426 24.0594 27.4571 23.0729 27.6204C22.0864 27.6981 18.8075 28.5223 18.1759 35.3719C17.4732 43.2868 16.799 48.737 16.2667 49.8333C15.7344 50.9295 15.3441 50.7429 15.408 51.3105C15.408 51.3105 18.5023 51.5515 19.4604 47.4153C19.8508 45.6659 20.1205 44.0099 20.2979 42.4627L28.8854 41.3742C29.3893 42.8358 29.9855 44.3753 30.752 45.9691C32.5476 49.7555 35.5142 48.7525 35.5142 48.7525C35.4503 48.1694 35.1167 48.4571 34.3644 47.5319ZM20.5534 39.7725C20.9579 34.2679 20.6811 30.6604 23.3497 30.3027C26.0324 29.9684 26.5221 33.5448 28.0693 38.8007L20.5534 39.7725Z" fill="white"/>
  <path d="M56.5147 37.1294C56.4082 37.0283 55.4288 35.8388 53.7468 36.1264C51.7028 36.3908 50.4253 38.0624 50.6524 40.2704C50.9576 43.1394 53.1435 44.1268 54.5843 43.9557C55.7198 43.8158 56.6708 43.3493 57.1392 42.5796C57.1392 42.5796 57.4302 42.1597 57.7141 42.4241C57.9767 42.6651 57.8135 43.5126 57.8135 43.5126C57.6715 44.3911 56.7063 45.7362 54.4991 46.0394C52.1357 46.3737 48.5801 44.5855 48.1826 40.8769C47.8349 37.627 49.7653 34.447 53.4132 33.965C56.4579 33.483 57.4302 36.0953 57.1605 37.1216C57.1037 37.3549 56.685 37.2927 56.5218 37.1372L56.5147 37.1294Z" fill="white"/>
  <path d="M64.3569 39.7414L61.9084 40.0601C62.3484 41.7395 63.6401 42.6958 65.4711 42.4781C67.1035 42.2682 67.9338 41.7084 68.5158 40.9698C68.5158 40.9698 69.1049 40.3478 69.2894 40.8143C69.4668 41.2808 68.7997 44.3363 65.4356 44.6706C62.1781 45.0827 59.7083 42.828 59.3463 39.5159C58.9631 35.7995 60.9574 32.9383 64.1156 32.5262C66.4576 32.2308 68.7571 33.7314 68.9984 36.0949C69.112 37.1212 68.9629 37.922 68.2319 38.5362C67.4938 39.1349 66.2802 39.4926 64.364 39.7491M64.1298 34.6799C62.5258 34.8665 61.5535 36.4603 61.6529 37.8676L61.6671 38.1319L63.9027 37.8054C65.2298 37.6188 65.975 37.4322 66.3228 37.2378C66.6563 37.0668 66.706 36.9113 66.6776 36.4914C66.5286 35.3252 65.7053 34.4777 64.1298 34.6799Z" fill="white"/>
  <path d="M39.7297 45.4012L37.6574 29.8747C37.4587 28.2808 36.6496 28.0243 35.9257 28.1331C35.4715 28.2031 35.0882 28.4441 35.0953 28.5219L37.4445 46.1476C37.5509 48.0524 39.2116 48.0602 39.2116 48.0602C40.0065 48.1768 40.6524 47.4382 40.6382 47.1272C40.6382 47.1272 39.9001 47.1583 39.7297 45.3934V45.4012Z" fill="white"/>
  <path d="M45.8476 44.4918L44.996 37.4167C44.8114 35.8228 44.0165 35.5585 43.2714 35.6596C42.8171 35.7295 42.4481 35.9706 42.4552 36.0405L43.5552 45.246C43.6617 47.1431 45.3153 47.1742 45.3153 47.1742C46.1031 47.2908 46.756 46.5444 46.7347 46.2334C46.7347 46.2334 45.9966 46.2645 45.8405 44.4996L45.8476 44.4918Z" fill="white"/>
  <path d="M45.2302 24.5344C45.3508 24.5733 41.2913 26.6725 43.0797 29.8835C44.7689 32.9391 49.3607 30.8865 48.4665 28.0875C47.2174 24.2078 44.4424 27.7299 44.4353 27.7143C43.8959 25.965 47.5864 23.4459 49.0697 26.6103C50.8227 30.3656 45.7766 34.2141 43.0442 31.6795C39.4673 28.3674 43.7611 24.0523 45.2302 24.5422V24.5344Z" fill="#FDC500"/>
  <path d="M82.6107 19.8531C82.2416 19.7598 81.8867 19.6121 81.5319 19.4644C81.1699 19.3166 80.8151 19.1689 80.4531 19.0212C80.9215 18.1659 81.5532 17.4196 82.2842 16.8364C82.7526 16.4632 83.2707 16.16 83.8314 16.0045C85.0024 15.6702 86.3154 16.0201 87.2167 16.9142C86.9825 17.9716 86.3225 18.8968 85.4637 19.4255C84.6049 19.9542 83.5688 20.1019 82.6107 19.8531Z" fill="#F59D0F"/>
  <path d="M78.2034 21.7199C78.2034 21.7199 78.2034 21.7277 78.2034 21.7354C78.6009 22.2097 79.1758 22.4507 79.8642 22.5285C81.4681 22.5829 84.016 23.8891 85.4567 25.4441C82.1211 27.8232 78.9841 24.4178 78.1538 22.1708C77.8628 25.7084 80.0771 32.5503 90.2189 29.4481C90.0486 27.4344 86.5142 21.2378 78.2034 21.7277V21.7199Z" fill="#95C11F"/>
  <path d="M74.5058 8.68122C74.5058 8.68122 73.8884 7.93483 73.3135 7.74046C73.3135 7.74046 72.1354 7.31284 71.305 7.84153C71.305 7.84153 69.5591 8.72009 69.4527 13.1984C69.4527 13.1984 69.1759 17.739 72.0786 19.5272C72.0786 19.5272 73.4554 20.4446 75.6201 19.6283C75.6201 19.6283 79.7719 18.2832 81.3616 14.6135C81.3616 14.6135 82.554 11.6746 80.5881 10.4772C80.5881 10.4772 79.8287 10.0263 78.0331 10.0574C78.0331 10.0574 76.0317 10.1662 74.9387 9.12439C74.9387 9.12439 74.7187 8.90669 74.5058 8.68122Z" fill="#C82E62"/>
  <path d="M80.1622 47.7184C79.4454 47.8117 78.7925 47.2519 78.7073 46.4588C78.6221 45.6658 79.1473 44.9505 79.8712 44.865C80.5951 44.7795 81.2126 45.347 81.3048 46.1012C81.3971 46.8942 80.8861 47.6173 80.1622 47.7106V47.7184ZM79.8854 45.106C79.2893 45.1838 78.8705 45.7824 78.9415 46.4277C79.0125 47.0731 79.5377 47.5473 80.1409 47.4696C80.7371 47.3918 81.1558 46.8009 81.0919 46.1556C81.021 45.5103 80.4887 45.036 79.8925 45.106H79.8854ZM80.368 47.0497L79.857 46.3966H79.8215L79.8996 47.1119L79.6654 47.143L79.4951 45.5803C79.5873 45.5103 79.7222 45.4559 79.8641 45.4403C80.1977 45.3937 80.4177 45.5803 80.4461 45.8446C80.4745 46.109 80.3254 46.28 80.1054 46.35L80.659 47.0186L80.3751 47.0575L80.368 47.0497ZM79.8712 45.6502C79.8215 45.6502 79.779 45.6736 79.7435 45.6891L79.8003 46.2411L79.8925 46.2256C80.0983 46.2023 80.2261 46.109 80.2048 45.8835C80.1835 45.6658 80.0061 45.6347 79.8712 45.658V45.6502Z" fill="#4B384C"/>
</svg>
