<?xml version="1.0" encoding="UTF-8"?>
<svg id="LOGO" xmlns="http://www.w3.org/2000/svg" viewBox="0 0 520.53 463.4">
  <defs>
    <style>
      .cls-1 {
        fill: #ffb600;
      }

      .cls-2 {
        fill: #fff;
      }

      .cls-3 {
        fill: #00abc8;
      }

      .cls-4 {
        fill: #db001c;
      }

      .cls-5 {
        fill: #e65300;
      }

      .cls-6 {
        fill: #aae2eb;
      }

      .cls-7 {
        fill: #f18a00;
      }
    </style>
  </defs>
  <circle class="cls-2" cx="264.1" cy="231.7" r="231.7" transform="translate(-86.48 254.61) rotate(-45)"/>
  <g>
    <path class="cls-4" d="M53.94,329.27c-22.94,8.77-56.58,27.97-47.98,38.02,6.48,7.57,45,3.21,70-.43-8.46-11.76-15.85-24.33-22.02-37.59Z"/>
    <path class="cls-2" d="M26.5,374.17c-15.56,0-20.44-2.64-22.57-5.13-1.85-2.16-2.45-4.79-1.73-7.63,3.12-12.29,32.81-27.77,50.79-34.65,1.31-.51,2.8.09,3.39,1.37,6.04,12.97,13.36,25.48,21.76,37.15.55.76.66,1.75.29,2.61-.37.86-1.15,1.48-2.08,1.61-23.39,3.4-39.15,4.65-49.85,4.65ZM52.59,332.69c-20.61,8.24-43.11,21.88-45.18,30.04-.29,1.14-.11,1.99.6,2.82,1.48,1.72,10.38,6.64,63.23-.73-7.06-10.21-13.32-20.99-18.65-32.13Z"/>
  </g>
  <g>
    <path class="cls-4" d="M514.7,102.65c-5.58-6.51-34.9-4.19-58.89-1.09,7.58,11.15,14.17,23.01,19.74,35.43,21.73-9.68,46.7-25.52,39.15-34.34Z"/>
    <path class="cls-2" d="M475.55,139.67c-1.03,0-2-.59-2.45-1.59-5.55-12.36-12.12-24.15-19.52-35.02-.52-.77-.61-1.76-.23-2.61s1.18-1.44,2.11-1.56c48.07-6.2,57.99-1.83,61.28,2.01,1.79,2.09,2.41,4.63,1.79,7.35-2.99,13.24-35.41,28.3-41.89,31.18-.35.16-.73.23-1.09.23ZM460.44,103.68c6.11,9.37,11.63,19.35,16.43,29.75,20.15-9.28,34.97-19.97,36.41-26.36.24-1.08.06-1.88-.63-2.68h0c-1.31-1.53-8.91-5.96-52.21-.72Z"/>
  </g>
  <g>
    <path class="cls-1" d="M264.1,450.18c-58.36,0-113.22-22.73-154.49-63.99-41.27-41.27-63.99-96.13-63.99-154.49s22.73-113.22,63.99-154.49c41.27-41.27,96.13-63.99,154.49-63.99s113.23,22.73,154.49,63.99,63.99,96.13,63.99,154.49-22.73,113.22-63.99,154.49-96.13,63.99-154.49,63.99Z"/>
    <path class="cls-5" d="M264.1,19.02c117.46,0,212.68,95.22,212.68,212.68s-95.22,212.68-212.68,212.68S51.42,349.16,51.42,231.7,146.64,19.02,264.1,19.02M264.1,7.42c-30.27,0-59.65,5.93-87.31,17.63-26.71,11.3-50.69,27.47-71.29,48.06-20.59,20.59-36.76,44.58-48.06,71.29-11.7,27.66-17.63,57.03-17.63,87.31s5.93,59.65,17.63,87.31c11.3,26.71,27.47,50.69,48.06,71.29,20.59,20.59,44.58,36.76,71.29,48.06,27.66,11.7,57.03,17.63,87.31,17.63s59.65-5.93,87.31-17.63c26.71-11.3,50.69-27.47,71.29-48.06,20.59-20.59,36.76-44.58,48.06-71.29,11.7-27.66,17.63-57.03,17.63-87.31s-5.93-59.65-17.63-87.31c-11.3-26.71-27.47-50.69-48.06-71.29-20.59-20.59-44.58-36.76-71.29-48.06-27.66-11.7-57.03-17.63-87.31-17.63h0Z"/>
  </g>
  <path class="cls-7" d="M173.69,60.56c95.48-67.52,241.63-12.43,268.35,101.53-13.74-22.86-30.05-43.64-49.95-60.96-59.79-53.01-143.4-65.85-218.4-40.57h0Z"/>
  <path class="cls-7" d="M84.29,294.92c36.95,70.01,106.4,118.29,186.25,121.06,26.36,1.15,52.49-2.67,78.2-9.77-97.9,64.2-241.77,3.41-264.45-111.29h0Z"/>
  <path class="cls-2" d="M518.73,105.71l-9.71,9.76c-41.67,27.05-86.87,39.65-142.22,39.65-35.46,0-71.8-5.11-106.95-10.05-35.56-5-72.33-10.17-108.64-10.17-44.02,0-82.29,7.84-117.02,23.97C13.04,168.69-.38,190.15,0,213.53l1.9,150.08,9.57-8.7c41.61-27.01,86.73-39.59,142.01-39.59,35.6,0,72.08,5.16,107.36,10.14,35.7,5.04,72.61,10.26,109.03,10.26,40.08,0,75.15-6.44,107.2-19.7,26.87-11.11,43.93-37.11,43.44-66.23l-1.78-144.08Z"/>
  <path class="cls-3" d="M34.2,158.86c3.84-1.78,7.74-3.42,11.67-5.01C74.17,74.54,144.43,15.15,229.97,2.52c-.41.03-.78.01-1.2.05C132.43,11,54.87,76.65,26.6,163.1c2.4-1.58,4.94-3,7.6-4.24Z"/>
  <path class="cls-3" d="M480.57,314.41c-25.68,67.13-81.68,119.25-151.26,139.62,80.93-18.06,144.61-77.37,170.39-153-5.48,5.4-11.92,9.93-19.13,13.38Z"/>
  <path class="cls-4" d="M474.5,310.24c-154.61,63.94-312.29-60.37-466.31,39.6-.76-45.5-1.38-90.91-2.14-136.41-.35-20.97,11.4-40.44,30.42-49.27,157.61-73.2,318.7,58.38,475.84-43.62.72,43.12,1.44,86.23,2.16,129.35.44,26.43-15.55,50.25-39.97,60.35Z"/>
  <g>
    <path class="cls-2" d="M490.9,205.3c4.33-.07,7.86,3.37,7.93,7.8.07,4.45-3.35,7.99-7.67,8.06-4.28.07-7.77-3.35-7.85-7.8-.07-4.43,3.3-7.99,7.59-8.06ZM491.13,219.35c3.35-.05,5.95-2.76,5.89-6.22-.06-3.43-2.74-6.07-6.09-6.02-3.3.05-5.86,2.78-5.8,6.21.06,3.45,2.7,6.08,6.01,6.02ZM490.05,217.45l-1.92.03-.14-8.44,3.09-.05c1.75-.03,3.07,1.1,3.09,2.74.02,1.09-.59,1.93-1.56,2.33l1.76,3.32-2,.03-1.48-3.05h-.9s.05,3.08.05,3.08ZM489.94,210.73l.03,2.13h.9c.87-.03,1.34-.36,1.33-1.1-.01-.77-.49-1.06-1.36-1.04h-.9Z"/>
    <g>
      <path class="cls-2" d="M62.62,184.03c-9.31,2.98-22.56,9.53-33.56,17.85,0,8.51.67,106.22.67,106.22,8.82-4.45,17.64-8.27,26.46-11.54-.07-10.52-.14-23.67-.21-34.19,3.8,1.06,10.14.18,14.34-1.17,19.98-6.18,29.89-23.46,29.73-47.63-.18-27.03-17.2-35.93-37.43-29.55ZM64.04,238.17c-5.99,2.04-8.22.73-8.22.73l-.19-24.85s3.51-2.43,7.05-3.99c7.29-3.21,12.62,2.07,12.67,9.78.05,7.93-3.17,15.56-11.32,18.33Z"/>
      <path class="cls-2" d="M106,283.82c-.24-36.41-.49-72.81-.73-109.22,8.84-1.36,17.68-2.3,26.52-2.9.19,27.67.37,55.34.56,83.01,11.47-.77,21.37-1.29,32.85-1.04-2.65,8.68-5.31,17.38-7.96,26.11-17.61-.05-33.64,1.34-51.23,4.04ZM231.88,285.42c-1.91-6.67-3.81-13.33-5.72-20-9.6-1.09-19.2-2.07-28.79-2.84-1.82,6.3-3.64,12.61-5.46,18.92-9.32-.67-18.63-1.13-27.95-1.3,9.87-30.48,25.21-77.4,35.08-107.31,5.32.46,12.94,1.14,23.86,2.35,12.03,37.72,24.07,75.62,36.1,113.55-9.04-1.16-18.08-2.32-27.12-3.38ZM213.39,215.71c-1-3.53-2.01-8.47-2.01-8.47,0,0-.81,4.44-1.76,8.09-2.09,8.22-4.17,16.44-6.26,24.68,5.45.49,10.9,1.03,16.35,1.62-2.11-8.65-4.21-17.29-6.32-25.92ZM322.44,296.39c-10.22-17.95-20.45-36.11-30.67-54.37-1.56-2.68-2.98-6.28-2.98-6.28.13,19.04.26,38.07.38,57.11-8.81-1.06-17.61-2.2-26.42-3.34-.21-30.67-.62-109.26-.62-109.26,0,0,14.14,1.88,24.07,3.1,10.18,18.18,20.36,36.29,30.53,54.2,1.84,3.14,3.12,6.53,3.12,6.53-.13-19.04-.26-38.07-.38-57.11,8.8.8,17.61,1.46,26.41,1.89.24,36.41.49,72.81.73,109.22-8.06-.4-16.12-.98-24.18-1.69ZM357.09,298.62c-.24-36.41-.49-72.81-.73-109.22,20,.43,39.99-.45,59.97-3.45.06,8.74.12,17.48.18,26.21-11.14,1.67-22.29,2.69-33.43,3.18.04,5.25.07,10.51.11,15.76,10.51-.47,21.02-1.39,31.52-2.9.05,7.59.1,15.19.15,22.78-10.5,1.51-21.01,2.43-31.52,2.9.04,6.09.08,12.17.12,18.26,12.73-.57,25.46-1.81,38.18-3.94.06,8.74.12,17.48.18,26.21-21.56,3.61-43.13,4.67-64.71,4.2ZM472.08,197.1s.5,71.69.5,83.11c-6.74,2.86-20.49,7-26.42,8.6l-.56-83.01c-7.34,1.98-14.69,3.62-22.04,4.95l-.18-26.21c23.53-4.28,47.04-11.65,70.52-23.45.06,8.74.12,17.48.18,26.21-7.33,3.68-14.67,6.93-22,9.8Z"/>
    </g>
    <g>
      <g>
        <path class="cls-6" d="M215.68,213.03c-1-3.53-3.27-11.97-3.27-11.97,0,0-1.03,6.19-1.03,6.19,0,0,1.01,4.93,2.01,8.47,1.86,7.64,4.46,18.28,6.32,25.92,1.01.11,2.01.2,3.02.31-2.11-8.65-4.94-20.28-7.05-28.92Z"/>
        <path class="cls-6" d="M322.14,249.2c-.12-18.08-.24-43.96-.36-62.04-.77-.07-1.54-.12-2.31-.19.11,16.44.22,40.67.33,57.11,1.41,2.66,2.34,5.12,2.34,5.12Z"/>
        <path class="cls-6" d="M166.25,277.52c9.57-29.55,24.27-74.54,34.16-104.51-.46-.04-.93-.08-1.36-.12-9.88,29.91-25.21,76.83-35.08,107.31,9.31.17,18.63.63,27.95,1.3.27-.93.53-1.85.8-2.78-8.82-.61-17.64-1.04-26.46-1.2Z"/>
        <path class="cls-6" d="M416.5,212.16c0-.79-.01-1.57-.02-2.36-10.65,1.5-22.98,2.56-33.37,3.02.01,2.18-.04,2.52-.04,2.52,11.15-.49,22.29-1.51,33.43-3.18Z"/>
        <path class="cls-6" d="M414.85,250.98c0-.79-.01-1.58-.02-2.38-10.04,1.32-21.75,2.15-31.52,2.58v2.7c10.52-.47,21.03-1.39,31.53-2.9Z"/>
        <path class="cls-6" d="M108.28,281.14c-.24-35.62-.48-71.24-.72-106.87-.77.11-1.53.21-2.3.33.24,36.41.49,72.81.73,109.22,17.59-2.71,33.62-4.09,51.23-4.04.27-.89.54-1.78.82-2.68-17.12.01-32.66,1.4-49.76,4.04Z"/>
        <path class="cls-6" d="M359.38,295.93c-.24-35.5-.48-71.01-.71-106.51-.77-.01-1.54-.01-2.3-.03.24,36.41.49,72.81.73,109.22,21.58.47,43.16-.6,64.71-4.2,0-.78-.01-1.55-.02-2.33-20.79,3.3-41.6,4.3-62.41,3.85Z"/>
        <path class="cls-6" d="M448.44,286.12l-.56-83.01c-7.34,1.98-14.69,3.62-22.04,4.95l-.16-23.97c-.77.15-1.53.3-2.3.44l.18,26.21c7.35-1.33,14.69-2.97,22.04-4.95l.56,83.01c5.93-1.6,19.68-5.75,26.42-8.6,0-.48,0-1.08,0-1.77-7.2,2.76-18.81,6.25-24.13,7.69Z"/>
        <path class="cls-6" d="M234.17,282.73c-1.91-6.67-3.81-13.33-5.72-20-9.6-1.09-20.67-2.2-30.27-2.97-.27.94-.54,1.88-.81,2.82,9.11.75,19.69,1.8,28.79,2.84,1.91,6.66,3.81,13.33,5.72,20,9.04,1.06,18.08,2.22,27.12,3.38-.33-1.03-.66-2.07-.98-3.1-7.95-1.02-15.9-2.03-23.85-2.97Z"/>
        <path class="cls-6" d="M472.02,195.27l.06,1.83c7.34-2.86,14.67-6.11,22-9.8,0-.52,0-1.04-.01-1.56-6.98,3.37-15.46,6.95-22.06,9.52Z"/>
        <path class="cls-6" d="M324.73,293.71c-10.22-17.95-20.45-36.11-30.67-54.37-1.56-2.68-5.15-10.71-5.15-10.71.03,3.83-.11,7.11-.11,7.11,0,0,1.42,3.6,2.98,6.28,10.23,18.26,20.45,36.42,30.67,54.37,8.06.71,16.12,1.29,24.18,1.69,0-.94-.01-1.88-.02-2.82-7.29-.39-14.58-.91-21.87-1.55Z"/>
        <path class="cls-6" d="M265.04,286.83c-.18-27.11-.52-91.65-.6-106.27-1.44-.19-2.3-.31-2.3-.31,0,0,.41,78.59.62,109.26,8.81,1.14,17.61,2.27,26.42,3.34,0-.99-.01-1.98-.02-2.97-8.04-.98-16.08-2.01-24.11-3.05Z"/>
      </g>
      <g>
        <path class="cls-6" d="M69.36,235.16c5.94-3.67,8.34-11.13,8.29-18-.05-7.71-5.39-12.99-12.67-9.78-3.55,1.56-9.36,5.37-9.36,5.37l.19,24.85s0,0,0,0l-.18-23.54s3.51-2.43,7.05-3.99c7.29-3.21,12.62,2.07,12.67,9.78.04,5.9-1.74,11.63-6,15.32Z"/>
        <path class="cls-6" d="M32.01,305.4s-.63-91.95-.66-105.22c-.77.55-1.54,1.11-2.29,1.68,0,8.51.67,106.22.67,106.22,8.82-4.45,17.64-8.27,26.46-11.54,0-.58,0-1.2-.01-1.8-8.06,3.07-16.11,6.59-24.16,10.65Z"/>
        <path class="cls-6" d="M72.57,258.6c-4.2,1.35-12.76,2.27-16.56,1.21,0,.72,0,1.66,0,2.66,3.81,1.03,10.09.15,14.27-1.19,8.44-2.61,15.06-7.22,19.91-13.48-4.58,4.9-10.44,8.57-17.62,10.8Z"/>
      </g>
    </g>
  </g>
</svg>