<svg width="150" height="48" viewBox="0 0 150 48" fill="none" xmlns="http://www.w3.org/2000/svg">
<g clip-path="url(#clip0_1030_700)">
<path d="M150 0H0V48H150V0Z" fill="#01172F"/>
<path d="M20.0538 29.4417C21.8425 29.4417 23.394 29.0634 23.394 27.1463C23.394 25.3987 22.0797 25.2618 19.6884 24.7792C16.7201 24.1989 13.7197 23.4099 13.7197 20.0125C13.7197 16.8238 16.3482 15.2132 19.5858 15.2132C22.9901 15.2132 25.2148 16.9607 26.1572 19.6017L23.7979 20.8341C23.1248 19.1909 22.2464 17.7824 19.5153 17.7824C17.7651 17.7824 16.5149 18.3627 16.5149 20.0125C16.5149 21.2449 17.1881 21.6231 19.7141 22.1383C22.6439 22.7187 26.1828 23.3055 26.1828 27.1463C26.1828 30.6089 23.3876 32.0174 19.6756 32.0174C16.1687 32.0174 13.7453 30.2698 12.7645 27.6289L15.1237 26.3964C15.9636 28.2809 16.874 29.4482 20.0474 29.4482L20.0538 29.4417Z" fill="#FBF5F3"/>
<path d="M47.1919 15.2132C52.7183 15.2132 54.8468 19.2952 54.6416 23.612L54.6096 24.3684L42.2362 24.3358C42.4734 27.4919 44.2236 29.4417 47.4612 29.4417C49.7179 29.4417 51.1668 28.4831 51.8464 26.3899L54.2057 27.6223C53.1927 30.0546 51.2053 32.0109 47.365 32.0109C41.6015 32.0109 39.4089 27.6549 39.4089 23.5794C39.4089 19.5039 41.531 15.2132 47.1984 15.2132H47.1919ZM51.7053 21.8644C51.5002 19.0539 49.782 17.7824 47.256 17.7824C44.4608 17.7824 42.8388 19.3278 42.3708 21.8253L51.7053 21.8579V21.8644Z" fill="#FBF5F3"/>
<path d="M80.1898 20.9385V29.1352H82.5811V31.6718H78.4331L77.4202 29.6829C76.3752 31.2284 74.5544 32.0109 72.131 32.0109C68.964 32.0109 66.6688 30.3285 66.6688 27.3811C66.6688 21.0754 77.3881 23.7816 77.3881 21.2449V20.8015C77.3881 19.2952 76.3752 17.7824 73.9133 17.7824C71.6566 17.7824 70.3744 18.917 69.6692 20.6972L67.3099 19.4647C68.6947 16.2434 71.3873 15.2132 73.9838 15.2132C77.6894 15.2132 80.1833 17.4759 80.1833 20.9385H80.1898ZM72.6055 29.4417C75.7405 29.4417 77.3945 27.8636 77.3945 25.8095V23.8924C74.6955 25.2292 69.573 24.1337 69.573 27.0811C69.573 28.3853 70.4834 29.4482 72.6055 29.4482V29.4417Z" fill="#FBF5F3"/>
<path d="M103.18 32.0174C99.4743 32.0174 97.3137 29.722 97.3137 25.8095V18.128H93.0696V15.5588H97.3137V9.80084H100.109V15.5588H108.302V18.128H100.109V25.3596C100.109 26.6964 100.109 29.4417 103.212 29.4417C105.405 29.4417 106.046 28.1049 106.719 26.3899L109.078 27.5897C108.104 30.4328 106.244 32.0109 103.18 32.0109V32.0174Z" fill="#FBF5F3"/>
<path d="M137.229 15.5588L127.048 39.5555H124.08L127.318 31.4305L120.541 15.5588H123.74L128.863 28.6526L134.222 15.5588H137.223H137.229Z" fill="#FBF5F3"/>
</g>
<defs>
<clipPath id="clip0_1030_700">
<rect width="150" height="48" fill="white"/>
</clipPath>
</defs>
</svg>
